<svg width="14" height="14" viewBox="0 0 14 14" fill="none" xmlns="http://www.w3.org/2000/svg">
<path id="Vector" d="M3.83602 10.14C6.01833 12.3188 8.66879 14 10.836 14C11.8101 14 12.6634 13.6607 13.3506 12.9068C13.7508 12.462 14 11.9418 14 11.4292C14 11.0522 13.8565 10.6903 13.5016 10.434L11.1834 8.7905C10.836 8.54925 10.534 8.42863 10.2621 8.42863C9.92229 8.42863 9.61273 8.62465 9.26535 8.96388L8.72923 9.49167C8.64618 9.57459 8.54043 9.61229 8.4423 9.61229C8.32902 9.61229 8.21574 9.567 8.14021 9.5293C7.67201 9.28053 6.87164 8.59448 6.12405 7.85568C5.38403 7.11681 4.69686 6.31773 4.45522 5.85029C4.41747 5.76736 4.37216 5.66181 4.37216 5.54873C4.37216 5.45072 4.40236 5.35271 4.48543 5.26978L5.02157 4.71944C5.35382 4.37263 5.5577 4.07108 5.5577 3.72428C5.5577 3.45288 5.43688 3.15886 5.18014 2.80452L3.55663 0.520191C3.29988 0.158317 2.92233 0 2.51456 0C2.01618 0 1.50269 0.226169 1.05717 0.655895C0.324703 1.35702 0 2.22401 0 3.18147C0 5.34517 1.65372 7.96878 3.83602 10.14Z" fill="black" fill-opacity="0.5"/>
</svg>
