<svg width="23" height="20" viewBox="0 0 23 20" fill="none" xmlns="http://www.w3.org/2000/svg">
<path d="M11.5208 12.1948C11.9479 12.1948 12.3437 11.9965 12.802 11.5374L21.8646 2.55304C21.4792 2.17739 20.7604 2 19.7292 2H2.95833C2.08333 2 1.46875 2.16696 1.125 2.51131L10.2396 11.5374C10.6875 11.9861 11.0834 12.1948 11.5208 12.1948ZM0.260417 18.2991L7.625 11.0052L0.239583 3.71131C0.0833333 4.00348 0 4.50436 0 5.22435V16.7444C0 17.4853 0.0833333 18.007 0.260417 18.2991ZM3.27084 19.9791H20.0417C20.9166 19.9791 21.5208 19.8122 21.8646 19.4783L14.3541 12.0279L13.6667 12.727C12.9479 13.4157 12.2708 13.7287 11.5208 13.7287C10.7604 13.7287 10.0834 13.4157 9.37502 12.727L8.67708 12.0279L1.1875 19.4678C1.58333 19.8122 2.27084 19.9791 3.27084 19.9791ZM22.75 18.2887C22.9166 17.9862 23 17.4748 23 16.7444V5.22435C23 4.52523 22.9166 4.02436 22.7708 3.74261L15.4062 11.0052L22.75 18.2887Z" fill="#111111" fill-opacity="0.5"/>
</svg>
