<svg width="23" height="23" viewBox="0 0 23 23" fill="none" xmlns="http://www.w3.org/2000/svg">
<path fill-rule="evenodd" clip-rule="evenodd" d="M23 11.5C23 17.78 17.7912 23 11.5 23C5.22011 23 0 17.78 0 11.5C0 5.20883 5.20883 0 11.4887 0C17.78 0 23 5.20883 23 11.5ZM4.75767 11.0152C4.00229 11.376 4.1263 12.4583 5.14101 12.4583L10.0116 12.4696C10.2371 12.4696 10.3837 12.6162 10.3837 12.8417V17.6559C10.3837 18.6932 11.4886 18.7947 11.8381 18.0505L17.0018 7.04657C17.419 6.14461 16.6523 5.37793 15.7391 5.80637L4.75767 11.0152Z" fill="#111111" fill-opacity="0.5"/>
</svg>
